<svg t="1658047350590" class="icon" viewBox="0 0 1024 1024" version="1.1" xmlns="http://www.w3.org/2000/svg" p-id="2494" width="128" height="128"><path d="M620.685714 880.114286H0.457143v-585.142857l269.371428-151.085715h632.571429v19.885715l8.571429-5.6 113.485714 29.714285-72.114286 540.8-261.485714 169.828572z" fill="#25467A" p-id="2495"></path><path d="M620.571429 832.457143l234.171428-131.428572V191.542857L620.571429 322.857143v509.6z" fill="#E6C155" p-id="2496"></path><path d="M48 322.857143h572.571429v509.6H48V322.857143z" fill="#FADD60" p-id="2497"></path><path d="M282.171429 191.542857h572.571428L620.571429 322.857143H48l234.171429-131.314286z" fill="#FCE898" p-id="2498"></path><path d="M971.771429 223.314286l-63.657143 477.371428-225.485715 146.4L746.285714 369.714286z" fill="#FAD53E" p-id="2499"></path><path d="M682.628571 847.085714l-52-13.714285 63.657143-477.371429 52 13.714286z" fill="#FADD60" p-id="2500"></path><path d="M746.285714 369.714286l-52-13.714286 225.485715-146.4 52 13.714286z" fill="#FCE68D" p-id="2501"></path><path d="M325.142857 668.8c-35.314286 0-64-28.685714-64-64 0-7.085714 5.714286-12.8 12.8-12.8s12.8 5.714286 12.8 12.8c0 21.257143 17.142857 38.4 38.4 38.4s38.4-17.142857 38.4-38.4c0-7.085714 5.714286-12.8 12.8-12.8s12.8 5.714286 12.8 12.8c0 35.314286-28.685714 64-64 64zM158.742857 502.4c0 21.257143 17.142857 38.4 38.4 38.4s38.4-17.142857 38.4-38.4-17.142857-38.4-38.4-38.4c-21.142857 0-38.4 17.142857-38.4 38.4zM414.742857 502.4c0 21.257143 17.142857 38.4 38.4 38.4s38.4-17.142857 38.4-38.4-17.142857-38.4-38.4-38.4c-21.142857 0-38.4 17.142857-38.4 38.4z" fill="#25467A" p-id="2502"></path><path d="M145.942857 566.4H94.742857c-14.171429 0-25.6 11.428571-25.6 25.6 0 14.171429 11.428571 25.6 25.6 25.6h51.2c14.171429 0 25.6-11.428571 25.6-25.6 0-14.171429-11.428571-25.6-25.6-25.6z m409.6 0h-51.2c-14.171429 0-25.6 11.428571-25.6 25.6 0 14.171429 11.428571 25.6 25.6 25.6h51.2c14.171429 0 25.6-11.428571 25.6-25.6 0-14.171429-11.428571-25.6-25.6-25.6z" fill="#FFF3E0" p-id="2503"></path></svg>